<svg xmlns="http://www.w3.org/2000/svg">
  <symbol id="logo" fill="currentColor" viewBox="0 0 74 15">
    <path d="M73.638 11.866c-.254-.255-.55-.362-.911-.362-.362 0-.67.107-.912.362-.255.255-.362.55-.362.912 0 .361.107.67.362.911.255.255.55.389.912.389s.67-.134.911-.389c.255-.255.362-.55.362-.912 0-.348-.107-.656-.362-.911Zm-.134 1.689c-.228.228-.469.335-.777.335-.309 0-.55-.107-.778-.335-.228-.228-.308-.47-.308-.777 0-.309.107-.55.308-.778.228-.228.47-.335.778-.335.308 0 .55.107.777.335.228.228.308.47.308.777 0 .309-.08.564-.308.778Z" />
    <path d="M73.008 13.26c-.053.054-.134.08-.254.08a.407.407 0 0 1-.336-.16.656.656 0 0 1-.107-.39c0-.106.027-.227.08-.308.081-.134.188-.227.363-.227.107 0 .227.026.281.08a.334.334 0 0 1 .107.228h.228c-.027-.188-.107-.362-.281-.443a.769.769 0 0 0-.335-.08.572.572 0 0 0-.47.228.886.886 0 0 0-.187.523c0 .228.053.415.187.55a.676.676 0 0 0 .496.187.68.68 0 0 0 .39-.134c.106-.08.16-.228.187-.362h-.228c-.014.08-.04.174-.12.228ZM9.156 9.346a3.092 3.092 0 0 0-.415-.939 2.965 2.965 0 0 0-.698-.777 2.936 2.936 0 0 0-.965-.523c-.134-.054-.389-.107-.75-.228-.336-.107-.698-.187-1.06-.308-.361-.107-.697-.188-.965-.308-.308-.08-.469-.135-.496-.161a2.347 2.347 0 0 1-.965-.577c-.255-.255-.389-.616-.389-1.086 0-.335.054-.576.188-.804a1.35 1.35 0 0 1 .496-.496c.188-.134.416-.228.67-.282.255-.053.47-.08.724-.08.697 0 1.274.16 1.716.496.442.335.697.912.75 1.743h1.998c0-.67-.107-1.247-.362-1.77a3.75 3.75 0 0 0-.938-1.273 3.518 3.518 0 0 0-1.38-.778A5.852 5.852 0 0 0 4.624.94c-.496 0-1.032.08-1.528.228a3.707 3.707 0 0 0-1.327.697A3.2 3.2 0 0 0 .83 3.032C.576 3.5.47 4.09.47 4.72c0 .335.027.67.107.992.08.335.228.643.416.911.188.282.442.55.778.778a3.95 3.95 0 0 0 1.22.55c.777.254 1.447.442 1.997.576.523.134.992.308 1.421.47.228.08.442.254.643.495.188.228.309.577.309 1.086 0 .255-.054.47-.134.724-.08.228-.228.442-.416.617-.188.16-.442.335-.75.442-.309.107-.698.161-1.113.161-.416 0-.778-.054-1.14-.134-.335-.107-.67-.255-.911-.47a2.023 2.023 0 0 1-.617-.857 3.563 3.563 0 0 1-.228-1.247H0c0 .778.134 1.475.389 2.051.254.577.616 1.06 1.032 1.421.416.362.912.644 1.501.831.577.161 1.194.282 1.837.282.55 0 1.113-.08 1.662-.228a3.685 3.685 0 0 0 1.448-.724c.416-.335.778-.75 1.032-1.247.255-.496.39-1.112.39-1.836 0-.349-.028-.684-.135-1.02ZM12.038 10.673h4.545l1.086 3.379H19.8L15.43 1.249h-2.132L8.941 14.065h2.051l1.046-3.392Zm2.28-7.212h.053l1.716 5.496h-3.5l1.73-5.496ZM21.945 4.627h.027l5.215 9.438h2.105V1.249h-1.917v9.438h-.027l-5.215-9.438h-2.105v12.816h1.917V4.627ZM39.467 10.338c0-.335-.054-.67-.134-.992a3.09 3.09 0 0 0-.416-.939 2.966 2.966 0 0 0-.697-.777 2.935 2.935 0 0 0-.965-.523c-.134-.054-.389-.107-.75-.228-.336-.107-.698-.187-1.06-.308-.362-.107-.697-.188-.965-.308-.308-.08-.47-.135-.496-.161a2.347 2.347 0 0 1-.965-.577c-.255-.255-.389-.616-.389-1.086 0-.335.054-.576.188-.804a1.35 1.35 0 0 1 .496-.496c.188-.134.415-.228.67-.282.255-.053.47-.08.724-.08.697 0 1.274.16 1.716.496.442.335.697.912.75 1.743h1.998c0-.67-.107-1.247-.362-1.77a3.75 3.75 0 0 0-.938-1.273 3.519 3.519 0 0 0-1.381-.778 5.715 5.715 0 0 0-1.69-.255c-.495 0-1.031.08-1.527.228a3.708 3.708 0 0 0-1.328.697 3.2 3.2 0 0 0-.938 1.167c-.255.469-.362 1.032-.362 1.689 0 .335.027.67.107.992.08.335.228.643.416.911.188.282.442.55.777.778a3.95 3.95 0 0 0 1.22.55c.778.254 1.448.442 1.998.576.523.134.992.308 1.42.47.229.08.443.254.644.495.188.228.309.577.309 1.086 0 .255-.054.47-.134.724-.08.255-.228.442-.416.617-.188.16-.442.335-.75.442-.31.107-.698.161-1.113.161-.416 0-.778-.054-1.14-.134-.335-.107-.67-.255-.912-.47a2.024 2.024 0 0 1-.616-.857 3.564 3.564 0 0 1-.228-1.247H30.23c0 .778.134 1.475.39 2.051.254.577.616 1.06 1.031 1.421.416.362.912.644 1.502.831a5.916 5.916 0 0 0 1.837.282c.55 0 1.112-.08 1.662-.228a3.685 3.685 0 0 0 1.448-.724c.415-.335.777-.75 1.032-1.247a5.14 5.14 0 0 0 .335-1.863ZM48.744 12.121h-6.328V8.367h5.738V6.544h-5.738V3.193h6.207V1.249H40.42v12.816h8.325v-1.944ZM56.774 10.646c.053.416.08.939.08 1.529 0 .308 0 .643.027.965.027.335.107.643.281.912h2.132c-.228-.255-.362-.697-.47-1.328-.107-.616-.133-1.3-.133-2.05 0-.497-.054-.912-.161-1.247-.108-.336-.255-.617-.416-.805a1.608 1.608 0 0 0-.55-.469c-.187-.08-.388-.16-.55-.16v-.041a2.31 2.31 0 0 0 .443-.228c.188-.107.416-.282.644-.523.228-.255.389-.55.55-.965.16-.389.254-.912.254-1.528 0-1.086-.308-1.944-.938-2.547-.644-.617-1.582-.912-2.829-.912h-5.443v12.816h1.998V8.783h2.936c.469 0 .83.054 1.14.188.308.134.522.335.696.616.148.282.255.644.309 1.06ZM54.95 7.067h-3.27V3.072h3.244c.254 0 .496.027.75.08.255.054.443.135.644.282.188.134.335.335.442.617.107.255.161.576.161.992 0 .697-.16 1.193-.496 1.528-.362.335-.831.496-1.475.496ZM62.136 1.249H60.14v12.816h1.997V1.249ZM66.855 3.18h5.885l.188-1.931h-7.883l-1.273 12.749h2.01l.563-5.657h5.162l.187-1.823h-5.16l.32-3.339Z" />
  </symbol>
</svg>